<svg viewport-fill="#F3F0EE" xmlns:dc="http://purl.org/dc/elements/1.1/" xmlns:cc="http://creativecommons.org/ns#" xmlns:rdf="http://www.w3.org/1999/02/22-rdf-syntax-ns#" xmlns:svg="http://www.w3.org/2000/svg" xmlns="http://www.w3.org/2000/svg" xmlns:xlink="http://www.w3.org/1999/xlink" id="svg6" viewBox="0 0 1024 768" height="768px" width="1024px" version="1.1">
  
  <defs id="defs10"></defs>
  <style><![CDATA[  #title path{ fill: #16c9f0 !important; } #tagline path{ fill: #16c9f0 !important; }  #icon *{ fill: #16c9f0 !important; } ]]> </style><g id="logo-group"><rect x="0" y="0" width="1024" height="768" style="fill: #F3F0EE" />
    <g id="icon" transform="translate(0 311.87296) translate(299.5915683 32.57023999999999) scale(1.34) translate(-345.50056 51.264)"><svg x="345.50056" y="-51.003" width="51.678000000000004" height="51.678000000000004" viewBox="0 0 48 48"><path d="M45.5,13.4c2.4-5,3.1-9.4,0.7-11.7C43.1-1.2,37.5,1,34.5,2.4C31.3,0.9,27.8,0,24,0C10.7,0,0,10.7,0,24  c0,3.8,0.9,7.4,2.5,10.6c-2.4,5-3,9.3-0.7,11.7c1,1,4.2,3.1,11.7-0.7C33.7,55.5,55.6,34,45.5,13.4z M3.5,44.4  c-1.2-1.1-1-3.8,0.5-7.3c1.2,1.9,2.8,3.6,4.5,5c4.6-1.5,12.1-6.3,19.8-14c8.5-8.5,12.6-15.8,14-19.8c-1.5-1.7-3.2-3.2-5-4.5  c1.9-0.8,5.6-1.9,7.3-0.5c3,2.7-2.4,14.4-14.4,26.5C21,38.9,7.2,47.8,3.5,44.4z"></path></svg></g>
    <g id="title" style="font-style:oblique;font-weight:700;font-size:72px;line-height:1;font-family:'Montserrat Alternates';font-variant-ligatures:none;text-align:center;text-anchor:middle" aria-label="YOUR LOGO">
      <path id="path14" style="font-style: oblique; font-weight: 700; font-size: 72px; line-height: 1; font-family: &quot;Montserrat Alternates&quot;; font-variant-ligatures: none; text-align: center; text-anchor: middle;" d="m 344.62644,-50.472 -7.56,37.584 q -1.224,6.264 -4.968,10.944 -3.672,4.68 -9.288,7.2 -5.616,2.52 -12.384,2.52 -6.192,0 -11.808,-2.16 -5.544,-2.088 -8.784,-5.472 l 6.48,-8.352 q 2.376,2.232 5.976,3.528 3.672,1.224 7.128,1.224 3.672,0 6.768,-1.368 3.168,-1.44 5.256,-3.888 2.16,-2.448 2.736,-5.472 l 0.792,-3.816 q -3.024,3.312 -6.84,5.112 -3.816,1.8 -8.208,1.8 -6.984,0 -11.088,-4.104 -4.032,-4.104 -4.032,-10.944 0,-2.232 0.432,-4.68 l 3.96,-19.656 h 13.104 l -3.816,19.44 q -0.216,1.152 -0.216,2.304 0,2.88 1.728,4.536 1.8,1.584 4.968,1.584 4.464,0 8.064,-2.88 3.672,-2.88 4.824,-7.344 l 3.528,-17.64 z" transform="translate(0 311.87296) translate(228.54996749999998 33.63152) scale(1.34) translate(-289.83444 50.472)"></path>
      <path id="path16" style="font-style: oblique; font-weight: 700; font-size: 72px; line-height: 1; font-family: &quot;Montserrat Alternates&quot;; font-variant-ligatures: none; text-align: center; text-anchor: middle; display: none;" d="m 375.52456,-51.264 q 7.2,0 12.816,3.096 5.688,3.024 8.856,8.424 3.168,5.4 3.168,12.168 0,7.848 -4.032,14.4 -4.032,6.552 -10.944,10.368 -6.912,3.744 -15.12,3.744 -7.2,0 -12.888,-3.096 -5.616,-3.096 -8.784,-8.496 -3.096,-5.472 -3.096,-12.312 0,-7.92 4.032,-14.4 4.032,-6.48 10.872,-10.152 6.912,-3.744 15.12,-3.744 z m -0.936,11.16 q -4.032,0 -7.632,2.16 -3.6,2.16 -5.76,5.904 -2.16,3.744 -2.16,8.136 0,3.816 1.656,6.912 1.656,3.096 4.536,4.896 2.88,1.8 6.336,1.8 3.96,0 7.488,-2.16 3.528,-2.232 5.616,-5.976 2.088,-3.744 2.088,-8.208 0,-3.816 -1.584,-6.84 -1.584,-3.096 -4.392,-4.824 -2.808,-1.8 -6.192,-1.8 z"></path>
      <path id="path18" style="font-style: oblique; font-weight: 700; font-size: 72px; line-height: 1; font-family: &quot;Montserrat Alternates&quot;; font-variant-ligatures: none; text-align: center; text-anchor: middle;" d="m 418.04394,0.648 q -6.48,0 -10.224,-3.672 -3.744,-3.672 -3.744,-10.008 0,-2.52 0.504,-4.824 l 6.48,-32.616 h 13.392 l -5.904,29.448 q -0.288,1.152 -0.288,2.52 0,3.24 1.944,5.184 1.944,1.872 5.328,1.872 4.608,0 8.136,-2.952 3.6,-3.024 4.68,-7.776 l 5.688,-28.296 h 13.176 L 447.13194,0 h -13.176 l 1.512,-7.56 q -3.384,3.96 -7.848,6.12 -4.464,2.088 -9.576,2.088 z" transform="translate(0 311.87296) translate(370.26233750000006 33.63152) scale(1.34) translate(-404.07594 50.472)"></path>
      <path id="path20" style="font-style: oblique; font-weight: 700; font-size: 72px; line-height: 1; font-family: &quot;Montserrat Alternates&quot;; font-variant-ligatures: none; text-align: center; text-anchor: middle;" d="m 507.51631,-36.216 q 0,6.912 -3.24,12.096 -3.24,5.112 -9.288,7.776 L 502.04431,0 h -14.976 l -4.536,-13.968 h -0.216 -9.504 L 470.00431,0 h -13.176 l 10.08,-50.472 h 22.68 q 8.64,0 13.248,3.744 4.68,3.744 4.68,10.512 z m -32.616,11.736 h 9.504 q 4.824,0 7.56,-2.52 2.736,-2.52 2.736,-6.984 0,-2.88 -1.872,-4.392 -1.8,-1.584 -5.256,-1.584 h -9.576 z" transform="translate(0 311.87296) translate(437.3995133 33.63152) scale(1.34) translate(-456.82831 50.472)"></path>
      <path id="path22" style="font-style: oblique; font-weight: 700; font-size: 72px; line-height: 1; font-family: &quot;Montserrat Alternates&quot;; font-variant-ligatures: none; text-align: center; text-anchor: middle;" d="m 540.43944,-11.232 h 21.384 L 559.59144,0 h -34.56 l 10.08,-50.472 h 13.176 z" transform="translate(0 311.87296) translate(525.2407075 33.63152) scale(1.34) translate(-525.03144 50.472)"></path>
      <path id="path24" style="font-style: oblique; font-weight: 700; font-size: 72px; line-height: 1; font-family: &quot;Montserrat Alternates&quot;; font-variant-ligatures: none; text-align: center; text-anchor: middle;" d="m 597.57144,-51.264 q 7.2,0 12.816,3.096 5.688,3.024 8.856,8.424 3.168,5.4 3.168,12.168 0,7.848 -4.032,14.4 -4.032,6.552 -10.944,10.368 -6.912,3.744 -15.12,3.744 -7.2,0 -12.888,-3.096 -5.616,-3.096 -8.784,-8.496 -3.096,-5.472 -3.096,-12.312 0,-7.92 4.032,-14.4 4.032,-6.48 10.872,-10.152 6.912,-3.744 15.12,-3.744 z m -0.936,11.16 q -4.032,0 -7.632,2.16 -3.6,2.16 -5.76,5.904 -2.16,3.744 -2.16,8.136 0,3.816 1.656,6.912 1.656,3.096 4.536,4.896 2.88,1.8 6.336,1.8 3.96,0 7.488,-2.16 3.528,-2.232 5.616,-5.976 2.088,-3.744 2.088,-8.208 0,-3.816 -1.584,-6.84 -1.584,-3.096 -4.392,-4.824 -2.808,-1.8 -6.192,-1.8 z" transform="translate(0 311.87296) translate(578.6611475000001 32.57023999999999) scale(1.34) translate(-567.54744 51.264)"></path>
      <path id="path26" style="font-style: oblique; font-weight: 700; font-size: 72px; line-height: 1; font-family: &quot;Montserrat Alternates&quot;; font-variant-ligatures: none; text-align: center; text-anchor: middle;" d="m 663.43231,-26.208 h 11.376 L 669.62431,0 h -9.648 l 0.576,-3.024 q -6.048,3.96 -12.168,3.96 -6.696,0 -12.024,-3.096 -5.256,-3.096 -8.208,-8.496 -2.88,-5.4 -2.88,-12.168 0,-7.92 4.032,-14.4 4.104,-6.552 11.088,-10.296 6.984,-3.744 15.264,-3.744 5.688,0 11.16,2.088 5.472,2.016 9.072,5.472 l -8.424,9.216 q -2.376,-2.592 -5.832,-4.104 -3.384,-1.512 -6.912,-1.512 -4.248,0 -7.92,2.16 -3.672,2.16 -5.832,5.904 -2.16,3.744 -2.16,8.28 0,3.816 1.512,6.912 1.584,3.024 4.32,4.824 2.808,1.728 6.336,1.728 2.664,0 5.4,-1.152 2.736,-1.152 4.824,-3.168 z" transform="translate(0 311.87296) translate(652.4614732999999 32.57023999999999) scale(1.34) translate(-625.27231 51.264)"></path>
      <path id="path28" style="font-style: oblique; font-weight: 700; font-size: 72px; line-height: 1; font-family: &quot;Montserrat Alternates&quot;; font-variant-ligatures: none; text-align: center; text-anchor: middle;" d="m 709.79019,-51.264 q 7.2,0 12.816,3.096 5.688,3.024 8.856,8.424 3.168,5.4 3.168,12.168 0,7.848 -4.032,14.4 -4.032,6.552 -10.944,10.368 -6.912,3.744 -15.12,3.744 -7.2,0 -12.888,-3.096 -5.616,-3.096 -8.784,-8.496 -3.096,-5.472 -3.096,-12.312 0,-7.92 4.032,-14.4 4.032,-6.48 10.872,-10.152 6.912,-3.744 15.12,-3.744 z m -0.936,11.16 q -4.032,0 -7.632,2.16 -3.6,2.16 -5.76,5.904 -2.16,3.744 -2.16,8.136 0,3.816 1.656,6.912 1.656,3.096 4.536,4.896 2.88,1.8 6.336,1.8 3.96,0 7.488,-2.16 3.528,-2.232 5.616,-5.976 2.088,-3.744 2.088,-8.208 0,-3.816 -1.584,-6.84 -1.584,-3.096 -4.392,-4.824 -2.808,-1.8 -6.192,-1.8 z" transform="translate(0 311.87296) translate(721.9322725 32.57023999999999) scale(1.34) translate(-679.76619 51.264)"></path>
    </g>
    <g id="tagline" style="font-style:oblique;font-weight:normal;font-size:32px;line-height:1;font-family:Lora;font-variant-ligatures:none;text-align:center;text-anchor:middle"></g>
  </g>
</svg>